REM DIRINDEX 1\2\6,1\2\7,1\2\8,1\2\9,1\3\10,1\3\11,1\4\12,1\4\13,1\4\14,1\5\15,1\5\16,1\5\17
REM DIRNAME folder01,folder02,folder03,folder04,folder05,folder06,folder07,folder08,folder09,folder10,folder11,folder12,folder13,folder14,folder15,folder16,folder17
TITLE ""
FILE "1900_3_076 sec13_1253_1270.mp3" MP3
  TRACK 01 AUDIO
    TITLE "0:"
    INDEX 01 00:00:00
  TRACK 02 AUDIO
    TITLE "17:cjc020_8485"
    INDEX 01 00:00:13
  TRACK 03 AUDIO
    TITLE "0:"
    INDEX 01 00:02:69
  TRACK 04 AUDIO
    TITLE "16:cjc020_8486"
    INDEX 01 00:02:73
  TRACK 05 AUDIO
    TITLE "0:"
    INDEX 01 00:04:17
  TRACK 06 AUDIO
    TITLE "17:cjc020_8487"
    INDEX 01 00:05:01
  TRACK 07 AUDIO
    TITLE "0:"
    INDEX 01 00:07:13
  TRACK 08 AUDIO
    TITLE "16:cjc020_8488"
    INDEX 01 00:07:17
  TRACK 09 AUDIO
    TITLE "0:"
    INDEX 01 00:08:36
  TRACK 10 AUDIO
    TITLE "17:cjc020_8489"
    INDEX 01 00:09:24
  TRACK 11 AUDIO
    TITLE "0:"
    INDEX 01 00:10:49
  TRACK 12 AUDIO
    TITLE "16:cjc020_8490"
    INDEX 01 00:10:57
  TRACK 13 AUDIO
    TITLE "0:"
    INDEX 01 00:11:62
  TRACK 14 AUDIO
    TITLE "17:cjc020_8491"
    INDEX 01 00:12:40
  TRACK 15 AUDIO
    TITLE "0:"
    INDEX 01 00:13:22
  TRACK 16 AUDIO
    TITLE "16:cjc020_8492"
    INDEX 01 00:13:30
  TRACK 17 AUDIO
    TITLE "0:"
    INDEX 01 00:14:33
  TRACK 18 AUDIO
    TITLE "17:cjc020_8493"
    INDEX 01 00:15:17
  TRACK 19 AUDIO
    TITLE "0:"
    INDEX 01 00:16:16
  TRACK 20 AUDIO
    TITLE "16:cjc020_8494"
    INDEX 01 00:16:20
  TRACK 21 AUDIO
    TITLE "0:"
    INDEX 01 00:17:43
  TRACK 22 AUDIO
    TITLE "17:cjc020_8495"
    INDEX 01 00:18:25
  TRACK 23 AUDIO
    TITLE "0:"
    INDEX 01 00:19:26
  TRACK 24 AUDIO
    TITLE "16:cjc020_8496"
    INDEX 01 00:19:30
  TRACK 25 AUDIO
    TITLE "0:"
    INDEX 01 00:20:41
  TRACK 26 AUDIO
    TITLE "17:cjc020_8497"
    INDEX 01 00:21:23
  TRACK 27 AUDIO
    TITLE "0:"
    INDEX 01 00:23:67
  TRACK 28 AUDIO
    TITLE "16:cjc020_8498"
    INDEX 01 00:23:71
  TRACK 29 AUDIO
    TITLE "0:"
    INDEX 01 00:25:15
  TRACK 30 AUDIO
    TITLE "17:cjc020_8499"
    INDEX 01 00:26:01
  TRACK 31 AUDIO
    TITLE "0:"
    INDEX 01 00:27:14
  TRACK 32 AUDIO
    TITLE "16:cjc020_8500"
    INDEX 01 00:27:18
  TRACK 33 AUDIO
    TITLE "0:"
    INDEX 01 00:28:23
  TRACK 34 AUDIO
    TITLE "17:cjc020_8501"
    INDEX 01 00:29:07
  TRACK 35 AUDIO
    TITLE "0:"
    INDEX 01 00:30:18
  TRACK 36 AUDIO
    TITLE "16:cjc020_8502"
    INDEX 01 00:30:22
  TRACK 37 AUDIO
    TITLE "0:"
    INDEX 01 00:31:22
  TRACK 38 AUDIO
    TITLE "17:cjc020_8503"
    INDEX 01 00:32:09
  TRACK 39 AUDIO
    TITLE "0:"
    INDEX 01 00:33:09
  TRACK 40 AUDIO
    TITLE "16:cjc020_8504"
    INDEX 01 00:33:17
  TRACK 41 AUDIO
    TITLE "0:"
    INDEX 01 00:34:14
  TRACK 42 AUDIO
    TITLE "17:cjc020_8505"
    INDEX 01 00:34:73
  TRACK 43 AUDIO
    TITLE "0:"
    INDEX 01 00:37:50
  TRACK 44 AUDIO
    TITLE "16:cjc020_8506"
    INDEX 01 00:37:59
  TRACK 45 AUDIO
    TITLE "0:"
    INDEX 01 00:38:57
  TRACK 46 AUDIO
    TITLE "17:cjc020_8507"
    INDEX 01 00:39:43
  TRACK 47 AUDIO
    TITLE "0:"
    INDEX 01 00:40:52
  TRACK 48 AUDIO
    TITLE "16:cjc020_8508"
    INDEX 01 00:40:58
  TRACK 49 AUDIO
    TITLE "0:"
    INDEX 01 00:41:67
  TRACK 50 AUDIO
    TITLE "17:cjc020_8509"
    INDEX 01 00:42:49
  TRACK 51 AUDIO
    TITLE "0:"
    INDEX 01 00:43:58
  TRACK 52 AUDIO
    TITLE "16:cjc020_8510"
    INDEX 01 00:43:60
  TRACK 53 AUDIO
    TITLE "0:"
    INDEX 01 00:44:52
  TRACK 54 AUDIO
    TITLE "17:cjc020_8511"
    INDEX 01 00:45:37
  TRACK 55 AUDIO
    TITLE "0:"
    INDEX 01 00:46:35
  TRACK 56 AUDIO
    TITLE "16:cjc020_8512"
    INDEX 01 00:46:37
  TRACK 57 AUDIO
    TITLE "0:"
    INDEX 01 00:47:46
  TRACK 58 AUDIO
    TITLE "17:cjc020_8513"
    INDEX 01 00:48:32
  TRACK 59 AUDIO
    TITLE "0:"
    INDEX 01 00:49:49
  TRACK 60 AUDIO
    TITLE "16:cjc020_8514"
    INDEX 01 00:49:51
  TRACK 61 AUDIO
    TITLE "0:"
    INDEX 01 00:50:54
  TRACK 62 AUDIO
    TITLE "17:cjc020_8515"
    INDEX 01 00:51:36
  TRACK 63 AUDIO
    TITLE "0:"
    INDEX 01 00:52:53
  TRACK 64 AUDIO
    TITLE "16:cjc020_8516"
    INDEX 01 00:52:57
  TRACK 65 AUDIO
    TITLE "0:"
    INDEX 01 00:53:66
  TRACK 66 AUDIO
    TITLE "17:cjc020_8517"
    INDEX 01 00:54:48
  TRACK 67 AUDIO
    TITLE "0:"
    INDEX 01 00:55:32
  TRACK 68 AUDIO
    TITLE "16:cjc020_8518"
    INDEX 01 00:55:38
  TRACK 69 AUDIO
    TITLE "0:"
    INDEX 01 00:56:37
  TRACK 70 AUDIO
    TITLE "17:cjc020_8519"
    INDEX 01 00:57:23
  TRACK 71 AUDIO
    TITLE "0:"
    INDEX 01 00:58:54
  TRACK 72 AUDIO
    TITLE "16:cjc020_8520"
    INDEX 01 00:58:60
  TRACK 73 AUDIO
    TITLE "0:"
    INDEX 01 00:59:63
